<svg xmlns="http://www.w3.org/2000/svg" viewBox="0 0 16 10.845"><defs><style>.a{fill:#b1b1b1;}</style></defs><g transform="translate(0 -69.296)"><path class="a" d="M791.541-1755.859h-3.4a3.156,3.156,0,0,1-3.141-3.164,3.142,3.142,0,0,1,2.647-3.126,2.04,2.04,0,0,1-.03-.342,2,2,0,0,1,1.991-2.005,1.978,1.978,0,0,1,1.286.476c.6-1.357,1.373-2.683,3.632-2.683,2.745,0,3.974,2.161,3.974,4.3,0,.081,0,.168-.011.276a3.167,3.167,0,0,1,2.511,3.1,3.156,3.156,0,0,1-3.141,3.164h-3.347v-2.982h1.309a.26.26,0,0,0,.242-.162.236.236,0,0,0-.016-.274l-2.81-3.923a.26.26,0,0,0-.226-.113.246.246,0,0,0-.21.113l-2.794,3.923a.259.259,0,0,0-.016.291.262.262,0,0,0,.242.146h1.308v2.982Z" transform="translate(-785 1836)"/></g></svg>