<svg xmlns="http://www.w3.org/2000/svg" viewBox="0 0 12.533 16"><defs><style>.a{fill:#b1b1b1;}</style></defs><g transform="translate(-24 -128)"><path class="a" d="M15.144,0H6.5V16H19.033V3.89ZM9.433,3.733H12.1a.267.267,0,0,1,0,.533H9.433a.267.267,0,1,1,0-.533ZM16.1,12.8H9.433a.267.267,0,1,1,0-.533H16.1a.267.267,0,0,1,0,.533Zm0-2.133H9.433a.267.267,0,1,1,0-.533H16.1a.267.267,0,0,1,0,.533Zm0-2.133H9.433a.267.267,0,1,1,0-.533H16.1a.267.267,0,0,1,0,.533Zm0-2.133H9.433a.267.267,0,1,1,0-.533H16.1a.267.267,0,0,1,0,.533ZM14.767,4.267V.533L18.5,4.267Z" transform="translate(17.5 128)"/></g></svg>