<svg xmlns="http://www.w3.org/2000/svg" viewBox="0 0 15.389 20"><defs><style>.a{fill:#0a7aff;}</style></defs><g transform="translate(-31.799)"><path class="a" d="M93.884,1.517l-6.9,6.9a.434.434,0,0,0-.113.2L86.279,10.9a.435.435,0,0,0,.53.53l2.281-.592a.435.435,0,0,0,.2-.113l6.9-6.9h0l1.389-1.389a.435.435,0,0,0,0-.615L95.888.127a.435.435,0,0,0-.615,0L93.884,1.516h0Zm-5.127,8.5-1.45.376.376-1.45,6.508-6.508,1.073,1.073ZM95.581,1.05l1.073,1.073L95.88,2.9,94.807,1.824Z" transform="translate(-50.516)"/><path class="a" d="M46.753,25.506a.435.435,0,0,0-.435.435v13.98H32.669V23.287h8.053a.435.435,0,1,0,0-.87H32.234a.435.435,0,0,0-.435.435v17.5a.435.435,0,0,0,.435.435H46.753a.435.435,0,0,0,.435-.435V25.941A.435.435,0,0,0,46.753,25.506Z" transform="translate(0 -20.792)"/></g></svg>