<svg xmlns="http://www.w3.org/2000/svg" viewBox="0 0 16 15.674"><defs><style>.a{fill:#b1b1b1;}</style></defs><g transform="translate(0 -2.37)"><path class="a" d="M61.753,113.019a.906.906,0,0,0-.906-.906h-.941a.906.906,0,0,0-.906.906v6.309a.906.906,0,0,0,.906.906h.941a.906.906,0,0,0,.906-.906Z" transform="translate(-54.94 -102.19)"/><path class="a" d="M2.753,144.088a.975.975,0,0,0-.975-.975h-.8a.975.975,0,0,0-.975.975v4.038a.975.975,0,0,0,.975.975h.8a.975.975,0,0,0,.975-.975Z" transform="translate(0 -131.057)"/><path class="a" d="M119.753,78.019a.906.906,0,0,0-.906-.906h-.941a.906.906,0,0,0-.906.906v8.718a.906.906,0,0,0,.906.906h.941a.906.906,0,0,0,.906-.906Z" transform="translate(-108.948 -69.599)"/><path class="a" d="M164.473,4.943l-1.766-2.265a.729.729,0,0,0-1.19,0l-1.766,2.265a.548.548,0,0,0-.1.585.641.641,0,0,0,.607.309h.476V17.164a.886.886,0,0,0,.906.88h.948a.879.879,0,0,0,.9-.88V5.83l.479.007a.645.645,0,0,0,.609-.309A.548.548,0,0,0,164.473,4.943Z" transform="translate(-148.62)"/></g></svg>