<svg xmlns="http://www.w3.org/2000/svg" viewBox="0 0 16 13.539"><defs><style>.a{fill:#b1b1b1;}</style></defs><g transform="translate(-284 -36.544)"><path class="a" d="M7.745,13.539H2.154a2.257,2.257,0,0,1-.427-.04,2.022,2.022,0,0,1-.4-.119,2.048,2.048,0,0,1-.364-.2,2.407,2.407,0,0,1-.611-.611,2.046,2.046,0,0,1-.2-.364,2.022,2.022,0,0,1-.119-.4A2.257,2.257,0,0,1,0,11.385V2.154a2.258,2.258,0,0,1,.04-.427,2.022,2.022,0,0,1,.119-.4,2.047,2.047,0,0,1,.2-.364A2.406,2.406,0,0,1,.967.357a2.046,2.046,0,0,1,.364-.2,2.021,2.021,0,0,1,.4-.119A2.258,2.258,0,0,1,2.154,0H5.231a2.257,2.257,0,0,1,.427.04,2.021,2.021,0,0,1,.4.119,2.047,2.047,0,0,1,.364.2,2.4,2.4,0,0,1,.611.611,2.047,2.047,0,0,1,.2.364,2.021,2.021,0,0,1,.119.4,2.257,2.257,0,0,1,.04.427v.308h6.462a2.259,2.259,0,0,1,.427.04,2.022,2.022,0,0,1,.4.119,2.047,2.047,0,0,1,.364.2,2.4,2.4,0,0,1,.611.611,2.047,2.047,0,0,1,.2.364,2.022,2.022,0,0,1,.119.4,2.259,2.259,0,0,1,.04.427v6.769a2.258,2.258,0,0,1-.04.427,2.021,2.021,0,0,1-.119.4,2.046,2.046,0,0,1-.2.364,2.41,2.41,0,0,1-.611.611,2.046,2.046,0,0,1-.364.2,2.022,2.022,0,0,1-.4.119,2.258,2.258,0,0,1-.427.04H8.294L11.239,9.4A.3.3,0,0,0,11,8.936H9.6V5.172a.273.273,0,0,0-.073-.207.312.312,0,0,0-.22-.069H6.716a.3.3,0,0,0-.207.078.256.256,0,0,0-.086.2V8.936h-1.4a.278.278,0,0,0-.259.173.253.253,0,0,0,.017.293l2.962,4.137Z" transform="translate(284 36.544)"/></g></svg>