<svg xmlns="http://www.w3.org/2000/svg" viewBox="0 0 18 18"><defs><style>.a{fill:#b1b1b1;}</style></defs><path class="a" d="M12.713,9.99a.708.708,0,0,0-1,0L11.1,10.6l-.9-.9,2.762-2.762a3.609,3.609,0,0,0,1.429.293h0A3.618,3.618,0,0,0,17.857,2.6a.218.218,0,0,0-.363-.092L15.216,4.788a3.927,3.927,0,0,1-1.119-.88,3.933,3.933,0,0,1-.884-1.116L15.491.507A.218.218,0,0,0,15.4.143,3.631,3.631,0,0,0,14.386,0a3.616,3.616,0,0,0-3.322,5.045L8.3,7.808,5.473,4.98l-.007-.015L4.173,2.749a.3.3,0,0,0-.089-.1L1.9,1.14a.3.3,0,0,0-.387.035l-.972.972a.3.3,0,0,0-.035.387L2.022,4.714a.3.3,0,0,0,.1.089L4.335,6.1,4.35,6.1,7.178,8.931,5.05,11.059a3.618,3.618,0,0,0-4.9,4.346.218.218,0,0,0,.363.092l2.278-2.285a3.932,3.932,0,0,1,1.118.88,3.931,3.931,0,0,1,.884,1.116L2.517,17.494a.218.218,0,0,0,.094.363,3.62,3.62,0,0,0,4.335-4.9l2.127-2.127.9.9-.615.615a.708.708,0,0,0,0,1L13.7,17.684a.708.708,0,0,0,1,0l2.352-2.352a.708.708,0,0,0,0-1Zm1.537,6.15a.4.4,0,0,1-.56,0L10.9,13.355a.4.4,0,1,1,.56-.56l2.785,2.785A.4.4,0,0,1,14.249,16.14Zm1.26-1.26a.4.4,0,0,1-.56,0l-2.785-2.785a.4.4,0,1,1,.56-.56L15.51,14.32A.4.4,0,0,1,15.51,14.88Z" transform="translate(-0.004)"/></svg>