<svg xmlns="http://www.w3.org/2000/svg" viewBox="0 0 16 13.128"><defs><style>.a{fill:#b1b1b1;}</style></defs><g transform="translate(0.001 -4.509)"><g transform="translate(-0.001 4.509)"><g transform="translate(0)"><path class="a" d="M24.229,27.347v-.356a.784.784,0,0,0-1.569,0v.356a.784.784,0,0,0,1.569,0Z" transform="translate(-15.444 -19.298)"/><path class="a" d="M10.011,30.685a1.379,1.379,0,0,1-2.645,0h-5.4a2.21,2.21,0,0,1-.952-.217v3.588A1.277,1.277,0,0,0,2.284,35.33H15.093a1.277,1.277,0,0,0,1.274-1.274V30.468a2.21,2.21,0,0,1-.952.217Z" transform="translate(-0.688 -22.202)"/><path class="a" d="M14.672,6.55H11.614A2.426,2.426,0,0,0,9.224,4.509H6.774A2.426,2.426,0,0,0,4.383,6.55H1.326A1.3,1.3,0,0,0,0,7.823v2.94a1.274,1.274,0,0,0,1.274,1.274H6.616A1.383,1.383,0,0,1,7.04,11.1l.025-.02a1.4,1.4,0,0,1,.175-.14c.022-.015.048-.025.071-.039a1.361,1.361,0,0,1,.158-.083,1.387,1.387,0,0,1,.137-.042c.039-.012.077-.027.118-.036A1.378,1.378,0,0,1,8,10.716a1.394,1.394,0,0,1,.275.028c.041.008.079.024.118.036a1.357,1.357,0,0,1,.137.043,1.377,1.377,0,0,1,.158.083c.023.014.049.024.072.039a1.365,1.365,0,0,1,.175.139c.008.007.018.013.025.021a1.381,1.381,0,0,1,.424.934h5.343A1.274,1.274,0,0,0,16,10.764V7.824A1.305,1.305,0,0,0,14.672,6.55Zm-9.062,0A1.23,1.23,0,0,1,6.774,5.7h2.45a1.229,1.229,0,0,1,1.164.848Z" transform="translate(0.001 -4.509)"/></g></g></g></svg>