<svg xmlns="http://www.w3.org/2000/svg" viewBox="0 0 20 16"><defs><style>.a{fill:#b1b1b1;}</style></defs><g transform="translate(0 -10)"><g transform="translate(0 10)"><path class="a" d="M10,16a3,3,0,1,0,3,3A3,3,0,0,0,10,16Zm8-3H15.6a.891.891,0,0,1-.79-.569l-.62-1.862A.891.891,0,0,0,13.4,10H6.6a.891.891,0,0,0-.79.569l-.62,1.862A.891.891,0,0,1,4.4,13H2a2.006,2.006,0,0,0-2,2v9a2.006,2.006,0,0,0,2,2H18a2.006,2.006,0,0,0,2-2V15A2.006,2.006,0,0,0,18,13ZM10,24a5,5,0,1,1,5-5A5,5,0,0,1,10,24Zm7.3-7.6a.7.7,0,1,1,.7-.7A.7.7,0,0,1,17.3,16.4Z" transform="translate(0 -10)"/></g></g></svg>