<svg xmlns="http://www.w3.org/2000/svg" viewBox="0 0 16 16"><defs><style>.a{fill:#b1b1b1;}</style></defs><g transform="translate(0 -0.013)"><path class="a" d="M15.415,6.848,13.83,6.583a5.97,5.97,0,0,0-.5-1.341l1.015-1.258a.7.7,0,0,0-.022-.905l-.63-.709a.7.7,0,0,0-.9-.128l-1.355.852a5.964,5.964,0,0,0-2-.9L9.173.6a.7.7,0,0,0-.69-.585h-.95A.7.7,0,0,0,6.844.6L6.577,2.192a5.961,5.961,0,0,0-1.682.7l-1.289-.92a.7.7,0,0,0-.9.074l-.671.672a.7.7,0,0,0-.074.9L2.881,4.91a5.976,5.976,0,0,0-.694,1.67l-1.6.268A.7.7,0,0,0,0,7.538v.949a.7.7,0,0,0,.585.69l1.6.268a5.959,5.959,0,0,0,.531,1.4l-1.01,1.251a.7.7,0,0,0,.021.9l.63.709a.7.7,0,0,0,.9.128l1.375-.864a5.956,5.956,0,0,0,1.946.864l.267,1.594a.7.7,0,0,0,.689.585h.95a.7.7,0,0,0,.69-.585l.266-1.594a5.952,5.952,0,0,0,1.663-.687l1.343.959a.7.7,0,0,0,.9-.075l.671-.671a.7.7,0,0,0,.074-.9l-.956-1.34a5.946,5.946,0,0,0,.695-1.675l1.585-.265A.7.7,0,0,0,16,8.487V7.538A.7.7,0,0,0,15.415,6.848ZM8.025,11.013a3,3,0,1,1,3-3A3,3,0,0,1,8.025,11.013Z" transform="translate(0)"/></g></svg>